# xmcd
#
# Track frame offsets:
#	150
#	15986
#	29333
#	43828
#	60299
#	79929
#	95284
#	111561
#	128093
#
# Disc length: 1960 seconds
#
# Revision: 0
# Processed by: cddbd v1.5.2PL0 Copyright (c) Steve Scherf et al.
# Submitted via: EZCDAudioConverter 2.2.2.1
#
DISCID=6a07a609
DTITLE=Courtney Janes
DYEAR=2008
DGENRE=Country
TTITLE0=Insanity
TTITLE1=Gypsy Summer
TTITLE2=Dyin' Inside
TTITLE3=She Came To Town
TTITLE4=My Disease
TTITLE5=Vili's Song
TTITLE6=Beautiful
TTITLE7=Leavin' Me Behind
TTITLE8=Time To Change
EXTD=
EXTT0=
EXTT1=
EXTT2=
EXTT3=
EXTT4=
EXTT5=
EXTT6=
EXTT7=
EXTT8=
PLAYORDER=
